<svg width="461" height="105" viewBox="0 0 461 105" fill="none" xmlns="http://www.w3.org/2000/svg">
<path d="M162.148 81.54C159.548 81.54 157.208 81.08 155.128 80.16C153.088 79.2 151.468 77.92 150.268 76.32C149.068 74.68 148.428 72.86 148.348 70.86H155.428C155.548 72.26 156.208 73.44 157.408 74.4C158.648 75.32 160.188 75.78 162.028 75.78C163.948 75.78 165.428 75.42 166.468 74.7C167.548 73.94 168.088 72.98 168.088 71.82C168.088 70.58 167.488 69.66 166.288 69.06C165.128 68.46 163.268 67.8 160.708 67.08C158.228 66.4 156.208 65.74 154.648 65.1C153.088 64.46 151.728 63.48 150.568 62.16C149.448 60.84 148.888 59.1 148.888 56.94C148.888 55.18 149.408 53.58 150.448 52.14C151.488 50.66 152.968 49.5 154.888 48.66C156.848 47.82 159.088 47.4 161.608 47.4C165.368 47.4 168.388 48.36 170.668 50.28C172.988 52.16 174.228 54.74 174.388 58.02H167.548C167.428 56.54 166.828 55.36 165.748 54.48C164.668 53.6 163.208 53.16 161.368 53.16C159.568 53.16 158.188 53.5 157.228 54.18C156.268 54.86 155.788 55.76 155.788 56.88C155.788 57.76 156.108 58.5 156.748 59.1C157.388 59.7 158.168 60.18 159.088 60.54C160.008 60.86 161.368 61.28 163.168 61.8C165.568 62.44 167.528 63.1 169.048 63.78C170.608 64.42 171.948 65.38 173.068 66.66C174.188 67.94 174.768 69.64 174.808 71.76C174.808 73.64 174.288 75.32 173.248 76.8C172.208 78.28 170.728 79.44 168.808 80.28C166.928 81.12 164.708 81.54 162.148 81.54ZM189.039 52.8C190.199 51.28 191.779 50 193.779 48.96C195.779 47.92 198.039 47.4 200.559 47.4C203.439 47.4 206.059 48.12 208.419 49.56C210.819 50.96 212.699 52.94 214.059 55.5C215.419 58.06 216.099 61 216.099 64.32C216.099 67.64 215.419 70.62 214.059 73.26C212.699 75.86 210.819 77.9 208.419 79.38C206.059 80.82 203.439 81.54 200.559 81.54C198.039 81.54 195.799 81.04 193.839 80.04C191.879 79 190.279 77.72 189.039 76.2V96.72H182.199V47.94H189.039V52.8ZM209.139 64.32C209.139 62.04 208.659 60.08 207.699 58.44C206.779 56.76 205.539 55.5 203.979 54.66C202.459 53.78 200.819 53.34 199.059 53.34C197.339 53.34 195.699 53.78 194.139 54.66C192.619 55.54 191.379 56.82 190.419 58.5C189.499 60.18 189.039 62.16 189.039 64.44C189.039 66.72 189.499 68.72 190.419 70.44C191.379 72.12 192.619 73.4 194.139 74.28C195.699 75.16 197.339 75.6 199.059 75.6C200.819 75.6 202.459 75.16 203.979 74.28C205.539 73.36 206.779 72.04 207.699 70.32C208.659 68.6 209.139 66.6 209.139 64.32ZM237.203 81.54C234.083 81.54 231.263 80.84 228.743 79.44C226.223 78 224.243 76 222.803 73.44C221.363 70.84 220.643 67.84 220.643 64.44C220.643 61.08 221.383 58.1 222.863 55.5C224.343 52.9 226.363 50.9 228.923 49.5C231.483 48.1 234.343 47.4 237.503 47.4C240.663 47.4 243.523 48.1 246.083 49.5C248.643 50.9 250.663 52.9 252.143 55.5C253.623 58.1 254.363 61.08 254.363 64.44C254.363 67.8 253.603 70.78 252.083 73.38C250.563 75.98 248.483 78 245.843 79.44C243.243 80.84 240.363 81.54 237.203 81.54ZM237.203 75.6C238.963 75.6 240.603 75.18 242.123 74.34C243.683 73.5 244.943 72.24 245.903 70.56C246.863 68.88 247.343 66.84 247.343 64.44C247.343 62.04 246.883 60.02 245.963 58.38C245.043 56.7 243.823 55.44 242.303 54.6C240.783 53.76 239.143 53.34 237.383 53.34C235.623 53.34 233.983 53.76 232.463 54.6C230.983 55.44 229.803 56.7 228.923 58.38C228.043 60.02 227.603 62.04 227.603 64.44C227.603 68 228.503 70.76 230.303 72.72C232.143 74.64 234.443 75.6 237.203 75.6ZM269.105 53.52V71.82C269.105 73.06 269.385 73.96 269.945 74.52C270.545 75.04 271.545 75.3 272.945 75.3H277.145V81H271.745C268.665 81 266.305 80.28 264.665 78.84C263.025 77.4 262.205 75.06 262.205 71.82V53.52H258.305V47.94H262.205V39.72H269.105V47.94H277.145V53.52H269.105ZM296.529 64.5L311.769 81H302.529L290.289 66.78V81H283.449V36.6H290.289V62.4L302.289 47.94H311.769L296.529 64.5ZM333.352 47.4C335.952 47.4 338.272 47.94 340.312 49.02C342.392 50.1 344.012 51.7 345.172 53.82C346.332 55.94 346.912 58.5 346.912 61.5V81H340.132V62.52C340.132 59.56 339.392 57.3 337.912 55.74C336.432 54.14 334.412 53.34 331.852 53.34C329.292 53.34 327.252 54.14 325.732 55.74C324.252 57.3 323.512 59.56 323.512 62.52V81H316.672V47.94H323.512V51.72C324.632 50.36 326.052 49.3 327.772 48.54C329.532 47.78 331.392 47.4 333.352 47.4ZM353.357 64.32C353.357 61 354.037 58.06 355.397 55.5C356.797 52.94 358.677 50.96 361.037 49.56C363.437 48.12 366.077 47.4 368.957 47.4C371.557 47.4 373.817 47.92 375.737 48.96C377.697 49.96 379.257 51.22 380.417 52.74V47.94H387.317V81H380.417V76.08C379.257 77.64 377.677 78.94 375.677 79.98C373.677 81.02 371.397 81.54 368.837 81.54C365.997 81.54 363.397 80.82 361.037 79.38C358.677 77.9 356.797 75.86 355.397 73.26C354.037 70.62 353.357 67.64 353.357 64.32ZM380.417 64.44C380.417 62.16 379.937 60.18 378.977 58.5C378.057 56.82 376.837 55.54 375.317 54.66C373.797 53.78 372.157 53.34 370.397 53.34C368.637 53.34 366.997 53.78 365.477 54.66C363.957 55.5 362.717 56.76 361.757 58.44C360.837 60.08 360.377 62.04 360.377 64.32C360.377 66.6 360.837 68.6 361.757 70.32C362.717 72.04 363.957 73.36 365.477 74.28C367.037 75.16 368.677 75.6 370.397 75.6C372.157 75.6 373.797 75.16 375.317 74.28C376.837 73.4 378.057 72.12 378.977 70.44C379.937 68.72 380.417 66.72 380.417 64.44ZM394.021 64.44C394.021 61.04 394.701 58.06 396.061 55.5C397.461 52.9 399.381 50.9 401.821 49.5C404.261 48.1 407.061 47.4 410.221 47.4C414.221 47.4 417.521 48.36 420.121 50.28C422.761 52.16 424.541 54.86 425.461 58.38H418.081C417.481 56.74 416.521 55.46 415.201 54.54C413.881 53.62 412.221 53.16 410.221 53.16C407.421 53.16 405.181 54.16 403.501 56.16C401.861 58.12 401.041 60.88 401.041 64.44C401.041 68 401.861 70.78 403.501 72.78C405.181 74.78 407.421 75.78 410.221 75.78C414.181 75.78 416.801 74.04 418.081 70.56H425.461C424.501 73.92 422.701 76.6 420.061 78.6C417.421 80.56 414.141 81.54 410.221 81.54C407.061 81.54 404.261 80.84 401.821 79.44C399.381 78 397.461 76 396.061 73.44C394.701 70.84 394.021 67.84 394.021 64.44ZM445.357 64.5L460.597 81H451.357L439.117 66.78V81H432.277V36.6H439.117V62.4L451.117 47.94H460.597L445.357 64.5Z" fill="white"/>
<path d="M131 62.5C131 46.0251 113.823 35.1795 98.9484 42.2626L68 57V68L98.9484 82.7374C113.823 89.8205 131 78.9749 131 62.5V62.5Z" fill="white"/>
<path d="M111 80C102.716 80 96 72.165 96 62.5C96 52.835 102.716 45 111 45C119.284 45 126 52.835 126 62.5C126 72.165 119.284 80 111 80Z" fill="#202020"/>
<path d="M92 62.5C92 46.0251 74.823 35.1795 59.9484 42.2626L30.7104 56.1855C29.6655 56.6831 29 57.7372 29 58.8944V66.1056C29 67.2628 29.6656 68.3169 30.7104 68.8145L59.9484 82.7374C74.823 89.8205 92 78.9749 92 62.5V62.5Z" fill="white"/>
<path d="M73 80C64.7157 80 58 72.165 58 62.5C58 52.835 64.7157 45 73 45C81.2843 45 88 52.835 88 62.5C88 72.165 81.2843 80 73 80Z" fill="#202020"/>
<path d="M74.7873 66.42C73.5473 66.42 72.5073 66 71.6673 65.16C70.8273 64.32 70.4073 63.28 70.4073 62.04C70.4073 60.8 70.8273 59.76 71.6673 58.92C72.5073 58.08 73.5473 57.66 74.7873 57.66C75.9873 57.66 77.0073 58.08 77.8473 58.92C78.6873 59.76 79.1073 60.8 79.1073 62.04C79.1073 63.28 78.6873 64.32 77.8473 65.16C77.0073 66 75.9873 66.42 74.7873 66.42Z" fill="white"/>
<path d="M113.787 67.42C112.547 67.42 111.507 67 110.667 66.16C109.827 65.32 109.407 64.28 109.407 63.04C109.407 61.8 109.827 60.76 110.667 59.92C111.507 59.08 112.547 58.66 113.787 58.66C114.987 58.66 116.007 59.08 116.847 59.92C117.687 60.76 118.107 61.8 118.107 63.04C118.107 64.28 117.687 65.32 116.847 66.16C116.007 67 114.987 67.42 113.787 67.42Z" fill="white"/>
</svg>
